<svg width="942" height="266" viewBox="0 0 942 266" fill="none" xmlns="http://www.w3.org/2000/svg">
<path d="M67.37 204.78C26.31 204.69 0.61 184.12 0.5 151.96H34.37L35.09 157.13C36.63 168.19 46.36 173.8 63.99 173.8C80.28 173.8 92.57 168.67 92.57 161.86C92.57 154.65 86.11 150.79 64.96 145.41C62.49 144.91 59.36 143.93 56.17 143.21C31.64 136.52 5.47 127.09 5.47 99.72C5.47 70.01 35.3 54.46 64.77 54.46C96.99 54.81 125.98 71.57 124.92 104.42H91.64L90.82 99.38C89.57 91.69 76.25 85.44 61.12 85.44C42.14 85.44 39.3 93.73 39.3 98.68C39.3 105.36 44.81 107.56 59.38 111.71C62.92 112.69 66.66 113.93 70.33 114.76C99.74 123.27 126.14 133.44 126.14 163.94C126.47 191.88 93.2 205.09 67.37 204.78Z" fill="#F1F2ED"/>
<path d="M279.29 200.62H245.45V129.62C245.45 100.31 233.65 85.44 210.37 85.44C192.63 85.44 171.91 95.24 171.91 122.86V200.62H138.07V6.62H171.91V68.96C195.19 47.81 243.26 49.4 262.52 73.7C273.64 86.6 279.28 105.32 279.28 129.36V200.62H279.29Z" fill="#F1F2ED"/>
<path d="M363.77 204.78C297.55 205.72 267.54 122.62 312.1 76.22C359.24 29.22 436.3 62.86 436.59 129.36C436.86 169.72 404.44 205.44 363.77 204.78ZM364.03 85.44C341.66 85.44 324.79 104.32 324.79 129.36C326 188.29 400.74 188.41 403.01 129.36C402.49 104.31 385.75 85.44 364.03 85.44Z" fill="#F1F2ED"/>
<path d="M484.43 265.62H450.59V58.62H484.43V64.62C494.23 57.94 506.14 54.46 519.51 54.46C560.77 54.03 585.77 88.91 585.83 129.1C585.8 169.36 560.88 205.2 519.51 204.78C505.89 204.78 494.15 201.36 484.43 194.59V265.62ZM518.21 85.44C467.54 85.6 468.04 173.66 518.21 173.8C539.22 173.8 554.06 155.53 554.33 129.36C554.06 103.5 539.21 85.44 518.21 85.44Z" fill="#F1F2ED"/>
<path d="M700.2 58.62H616.72V89.6H682.24L595.15 176.69L619.08 200.62L691.86 127.84V200.62H725.7V84.12C725.7 69.11 715.21 58.62 700.2 58.62Z" fill="#040704"/>
<path d="M779.52 265.62H745.68V58.62H779.52V64.62C789.32 57.94 801.23 54.46 814.6 54.46C855.86 54.03 880.86 88.91 880.92 129.1C880.89 169.36 855.97 205.2 814.6 204.78C800.98 204.78 789.24 201.36 779.52 194.59V265.62ZM813.3 85.44C762.63 85.6 763.13 173.66 813.3 173.8C834.31 173.8 849.15 155.53 849.42 129.36C849.15 103.5 834.31 85.44 813.3 85.44Z" fill="#F1F2ED"/>
<path d="M937.08 200.62H903.24V58.62H937.08V200.62ZM920.16 43.06C908.59 43.06 898.82 33.29 898.82 21.72C898.82 10.15 908.59 0.380005 920.16 0.380005C931.73 0.380005 941.5 10.15 941.5 21.72C941.5 33.29 931.72 43.06 920.16 43.06Z" fill="#F1F2ED"/>
</svg>
