<svg width="185" height="52" viewBox="0 0 185 52" fill="none" xmlns="http://www.w3.org/2000/svg">
<path d="M13.1466 40.0724C5.07423 40.0547 0.0216259 36.022 0 29.7171H6.65882L6.80037 30.7306C7.10313 32.899 9.01604 33.9988 12.4821 33.9988C15.6847 33.9988 18.1009 32.9931 18.1009 31.658C18.1009 30.2444 16.8309 29.4877 12.6728 28.4329C12.1872 28.3349 11.5718 28.1428 10.9447 28.0017C6.12211 26.6901 0.977099 24.8413 0.977099 19.4755C0.977099 13.6509 6.84166 10.6023 12.6354 10.6023C18.9699 10.6709 24.6693 13.9567 24.4609 20.3969H17.9181L17.7569 19.4088C17.5111 17.9012 14.8924 16.6759 11.9179 16.6759C8.1864 16.6759 7.62805 18.3011 7.62805 19.2716C7.62805 20.5812 8.71132 21.0125 11.5758 21.8261C12.2717 22.0182 13.007 22.2613 13.7285 22.4241C19.5105 24.0924 24.7007 26.0862 24.7007 32.0657C24.7656 37.5434 18.2248 40.1332 13.1466 40.0724Z" fill="#3D9426"/>
<path d="M54.8099 39.2569H48.157V25.3374C48.157 19.5912 45.8371 16.676 41.2603 16.676C37.7726 16.676 33.6991 18.5973 33.6991 24.0121V39.2569H27.0461V1.22339H33.6991V13.4451C38.2759 9.29865 47.7264 9.61037 51.5129 14.3744C53.6991 16.9034 54.8079 20.5734 54.8079 25.2865V39.2569H54.8099Z" fill="#3D9426"/>
<path d="M71.4187 40.0724C58.3998 40.2566 52.4999 23.965 61.2604 14.8683C70.5281 5.65406 85.6781 12.2491 85.7351 25.2864C85.7882 33.1989 79.4144 40.2017 71.4187 40.0724ZM71.4698 16.6759C67.0719 16.6759 63.7552 20.3773 63.7552 25.2864C63.9931 36.8395 78.687 36.863 79.1333 25.2864C79.031 20.3753 75.74 16.6759 71.4698 16.6759Z" fill="#3D9426"/>
<path d="M95.1403 52H88.4874V11.4179H95.1403V12.5942C97.067 11.2846 99.4085 10.6023 102.037 10.6023C110.149 10.518 115.064 17.3562 115.076 25.2354C115.07 33.1283 110.17 40.1547 102.037 40.0724C99.3594 40.0724 97.0513 39.4019 95.1403 38.0747V52ZM101.781 16.6759C91.8198 16.7073 91.9181 33.9713 101.781 33.9988C105.912 33.9988 108.83 30.417 108.883 25.2864C108.83 20.2166 105.91 16.6759 101.781 16.6759Z" fill="#3D9426"/>
<path d="M137.561 11.4178H121.148V17.4914H134.03L116.908 34.5654L121.612 39.2568L135.921 24.9884V39.2568H142.574V16.4171C142.574 13.4744 140.512 11.4178 137.561 11.4178Z" fill="#040704"/>
<path d="M153.155 52H146.502V11.4179H153.155V12.5942C155.081 11.2846 157.423 10.6023 160.052 10.6023C168.163 10.518 173.078 17.3562 173.09 25.2354C173.084 33.1283 168.185 40.1547 160.052 40.0724C157.374 40.0724 155.066 39.4019 153.155 38.0747V52ZM159.796 16.6759C149.834 16.7073 149.933 33.9713 159.796 33.9988C163.927 33.9988 166.844 30.417 166.897 25.2864C166.844 20.2166 163.927 16.6759 159.796 16.6759Z" fill="#3D9426"/>
<path d="M184.131 39.2568H177.478V11.4179H184.131V39.2568ZM180.805 8.36736C178.53 8.36736 176.609 6.45197 176.609 4.18368C176.609 1.9154 178.53 0 180.805 0C183.079 0 185 1.9154 185 4.18368C185 6.45197 183.077 8.36736 180.805 8.36736Z" fill="#3D9426"/>
</svg>
