<svg width="229" height="220" viewBox="0 0 229 220" fill="none" xmlns="http://www.w3.org/2000/svg">
<g clip-path="url(#clip0)">
<path d="M144.272 18.6014H122.411V22.0584H144.272V18.6014Z" fill="#E4EAEB"/>
<path d="M144.272 15.1278H127.739V18.5848H144.272V15.1278Z" fill="#CBD5D6"/>
<path opacity="0.45" d="M114.119 219.967C177.134 219.967 228.217 212.62 228.217 203.558C228.217 194.496 177.134 187.15 114.119 187.15C51.1053 187.15 0.0222778 194.496 0.0222778 203.558C0.0222778 212.62 51.1053 219.967 114.119 219.967Z" fill="#E4EAEB"/>
<path d="M167.97 49.3136V64.6529H177.882L180.044 70.7569L182.608 64.6529H192.519V49.3136H167.97Z" fill="#E4EAEB"/>
<path opacity="0.12" d="M179.009 60.4109C178.897 60.4064 178.788 60.378 178.689 60.3276C178.589 60.2771 178.502 60.2059 178.433 60.1187L175.844 56.7786C175.781 56.7002 175.735 56.61 175.708 56.5134C175.68 56.4167 175.673 56.3156 175.685 56.216C175.698 56.1163 175.73 56.0202 175.78 55.9333C175.83 55.8463 175.898 55.7703 175.978 55.7098C176.057 55.6468 176.148 55.6003 176.245 55.5729C176.342 55.5455 176.444 55.5378 176.544 55.5503C176.645 55.5627 176.741 55.595 176.829 55.6454C176.917 55.6957 176.994 55.763 177.055 55.8434L179.092 58.4653L184.102 53.0377C184.172 52.9657 184.256 52.9085 184.349 52.8695C184.441 52.8304 184.541 52.8103 184.641 52.8103C184.741 52.8103 184.841 52.8304 184.933 52.8695C185.026 52.9085 185.11 52.9657 185.18 53.0377C185.255 53.1056 185.315 53.1879 185.358 53.2795C185.401 53.3712 185.425 53.4706 185.429 53.5717C185.433 53.6728 185.416 53.7737 185.381 53.8684C185.345 53.9631 185.291 54.0497 185.221 54.1232L179.585 60.1604C179.512 60.2408 179.423 60.3048 179.324 60.348C179.225 60.3912 179.117 60.4127 179.009 60.4109Z" fill="#2D3536"/>
<path d="M35.6191 52.879V68.2184H45.5308L47.7019 74.3223L50.2654 68.2184H60.1771V52.879H35.6191Z" fill="#E4EAEB"/>
<path opacity="0.12" d="M46.6582 63.9765C46.5468 63.972 46.4377 63.9435 46.3383 63.8931C46.2388 63.8427 46.1515 63.7714 46.082 63.6842L43.4935 60.3441C43.3785 60.1829 43.3303 59.9834 43.3589 59.7874C43.3875 59.5915 43.4906 59.4141 43.6468 59.2923C43.8031 59.1706 44.0003 59.1139 44.1973 59.1341C44.3943 59.1542 44.5759 59.2497 44.7042 59.4006L46.7417 62.0225L51.7518 56.5949C51.8226 56.5227 51.907 56.4653 52.0002 56.4262C52.0934 56.387 52.1935 56.3668 52.2946 56.3668C52.3957 56.3668 52.4957 56.387 52.5889 56.4262C52.6821 56.4653 52.7666 56.5227 52.8373 56.5949C52.9791 56.74 53.0585 56.9348 53.0585 57.1377C53.0585 57.3405 52.9791 57.5353 52.8373 57.6804L47.1926 63.7677C47.1218 63.8362 47.0381 63.8899 46.9463 63.9258C46.8546 63.9616 46.7566 63.9788 46.6582 63.9765V63.9765Z" fill="#2D3536"/>
<path d="M164.429 22.0752H64.4775V201.329H164.429V22.0752Z" fill="#CBD5D6"/>
<path d="M155.478 42.5081H72.7441V168.663H155.478V42.5081Z" fill="white"/>
<path opacity="0.56" d="M114.754 194.599C120.154 194.599 124.532 190.221 124.532 184.821C124.532 179.42 120.154 175.042 114.754 175.042C109.354 175.042 104.976 179.42 104.976 184.821C104.976 190.221 109.354 194.599 114.754 194.599Z" fill="white"/>
<path opacity="0.12" d="M134.018 29.0809H105.995V33.1642H134.018V29.0809Z" fill="#2D3536"/>
<path d="M95.8492 36.137C98.3718 36.137 100.417 34.092 100.417 31.5694C100.417 29.0468 98.3718 27.0018 95.8492 27.0018C93.3266 27.0018 91.2816 29.0468 91.2816 31.5694C91.2816 34.092 93.3266 36.137 95.8492 36.137Z" fill="white"/>
<path d="M175.685 86.8393C175.443 88.646 175.443 90.4769 175.685 92.2836C175.78 92.7096 176.037 93.0818 176.402 93.3205C176.767 93.5593 177.211 93.6457 177.639 93.5612C178.332 93.4578 178.979 93.1571 179.505 92.6951C180.031 92.233 180.412 91.6292 180.604 90.9559L181.706 88.1336C181.866 87.5467 181.842 86.9247 181.635 86.3523C181.429 85.7799 181.051 85.2851 180.554 84.9355C178.792 83.5326 175.844 84.8519 175.685 86.8393Z" fill="#F4A28C"/>
<path opacity="0.08" d="M64.3522 144.047L64.7864 153.115L73.5541 151.295L77.2866 135.479C77.9896 132.496 79.5994 129.805 81.8947 127.774C84.1899 125.743 87.0579 124.474 90.1042 124.14C96.7843 123.413 105.068 122.729 110.353 123.096C120.315 123.789 141.358 121.426 148.43 127.471C155.503 133.517 156.246 149.817 164.446 155.795V144.447L162.05 113.911L153.006 110.829L120.992 115.581L117.576 116.165L114.036 118.086L106.521 114.328L63.2416 112.516L64.3522 144.047Z" fill="#2D3536"/>
<path d="M181.531 88.6514L182.75 99.3146L176.821 99.5651L178.316 91.6992L181.531 88.6514Z" fill="#F4A28C"/>
<path d="M54.0898 99.6819L110.337 112.424L109.31 117.209C109.31 117.209 81.1862 116.499 60.1687 120.549C39.1513 124.599 54.0898 99.6819 54.0898 99.6819Z" fill="#3D9426"/>
<path opacity="0.08" d="M54.0898 99.6819L110.337 112.424L109.31 117.209C109.31 117.209 81.1862 116.499 60.1687 120.549C39.1513 124.599 54.0898 99.6819 54.0898 99.6819Z" fill="#2D3536"/>
<path d="M175.518 88.9019L174.575 90.121C174.523 90.1911 174.489 90.2728 174.476 90.3591C174.463 90.4454 174.471 90.5336 174.5 90.616C174.528 90.6984 174.577 90.7724 174.641 90.8317C174.705 90.891 174.783 90.9336 174.867 90.956L176.111 91.2483L175.518 88.9019Z" fill="#F4A28C"/>
<path d="M174.441 99.6819L118.42 113.451L119.923 116.491C119.923 116.491 147.337 116.491 168.354 120.499C189.371 124.507 174.441 99.6819 174.441 99.6819Z" fill="#F4A28C"/>
<path opacity="0.31" d="M177.915 93.4109C178.659 93.2574 179.341 92.8887 179.877 92.3505C179.587 93.8762 178.727 95.2344 177.472 96.1498L177.915 93.4109Z" fill="#CE8172"/>
<path d="M149.007 117.927L150.443 105.594L170.241 100.5L172.504 120.967C164.546 121.582 156.546 120.547 149.007 117.927V117.927Z" fill="#3D9426"/>
<path opacity="0.08" d="M149.007 117.927L150.443 105.594L170.241 100.5L172.504 120.967C164.546 121.582 156.546 120.547 149.007 117.927V117.927Z" fill="#2D3536"/>
<path d="M170.241 100.5C170.241 100.5 195.659 94.8138 204.761 99.9157C213.863 105.018 195.993 153.115 195.993 153.115L167.936 152.23C167.936 152.23 143.379 105.385 170.241 100.5Z" fill="#3D9426"/>
<path d="M175.919 198.281C175.919 198.281 174.608 200.636 172.32 200.461C170.032 200.285 169.08 202.398 171.018 203.3C172.955 204.201 178.625 202.465 178.625 202.465L179.109 198.289L175.919 198.281Z" fill="#3D9426"/>
<path d="M196.477 197.789C196.477 197.789 197.413 200.294 199.701 200.494C201.989 200.694 202.606 202.907 200.536 203.5C198.465 204.093 193.154 201.496 193.154 201.496L193.304 197.321L196.477 197.789Z" fill="#3D9426"/>
<path d="M167.936 152.23L175.109 198.281H179.802C179.802 198.281 175.46 163.645 183.05 159.469C190.641 155.294 192.11 198.281 192.11 198.281L197.12 197.88L197.062 150.401L167.936 152.23Z" fill="#102E35"/>
<path d="M52.8373 86.8393C53.0842 88.6457 53.0842 90.4772 52.8373 92.2836C52.743 92.7096 52.4858 93.0818 52.1206 93.3205C51.7554 93.5593 51.3113 93.6457 50.8833 93.5612C50.1914 93.4593 49.5439 93.159 49.0193 92.6966C48.4946 92.2342 48.1153 91.6296 47.9273 90.9559L46.8168 88.1336C46.656 87.5459 46.6813 86.9229 46.8891 86.3502C47.097 85.7774 47.4772 85.2832 47.9774 84.9355C49.7393 83.5326 52.6619 84.8519 52.8373 86.8393Z" fill="#F4A28C"/>
<path d="M46.9921 88.6514L45.7814 99.3146L51.71 99.5651L50.207 91.6992L46.9921 88.6514Z" fill="#F4A28C"/>
<path d="M53.0043 88.9019L53.9729 90.121C54.0271 90.1904 54.0629 90.2723 54.0772 90.3592C54.0914 90.4461 54.0837 90.5351 54.0546 90.6182C54.0255 90.7013 53.976 90.7758 53.9107 90.8348C53.8454 90.8938 53.7663 90.9355 53.6807 90.956L52.4365 91.2483L53.0043 88.9019Z" fill="#F4A28C"/>
<path opacity="0.31" d="M50.6078 93.4109C49.8639 93.2574 49.1815 92.8887 48.6455 92.3505C48.9374 93.8778 49.8003 95.2364 51.0587 96.1498L50.6078 93.4109Z" fill="#CE8172"/>
<path d="M58.2817 100.5C58.2817 100.5 32.8636 94.8138 23.7619 99.9157C14.6602 105.018 32.5296 153.115 32.5296 153.115L60.5947 152.23C60.5947 152.23 85.1443 105.385 58.2817 100.5Z" fill="#3D9426"/>
<path d="M52.6119 198.281C52.6119 198.281 53.9145 200.636 56.2025 200.461C58.4904 200.285 59.4507 202.398 57.5051 203.3C55.5595 204.201 49.9064 202.465 49.9064 202.465L49.4221 198.289L52.6119 198.281Z" fill="#3D9426"/>
<path d="M32.0452 197.789C32.0452 197.789 31.1184 200.294 28.8304 200.494C26.5425 200.694 25.9162 202.907 27.9954 203.5C30.0746 204.093 35.3853 201.496 35.3853 201.496L35.2267 197.321L32.0452 197.789Z" fill="#3D9426"/>
<path opacity="0.08" d="M36.212 104.375C36.212 104.375 44.2449 109.577 40.1533 121.459C36.0617 133.342 35.4021 141.859 45.0465 138.878C54.691 135.897 53.9813 122.595 53.9813 122.595L63.8178 124.115L64.7697 142.994L60.5946 152.23L36.212 150.693L26.2836 148.188L22.6012 135.713L29.3482 114.612L36.212 104.375Z" fill="#2D3536"/>
<path d="M60.5946 152.23L53.4135 198.281H48.7206C48.7206 198.281 53.0711 163.645 45.4808 159.469C37.8904 155.294 36.3957 198.281 36.3957 198.281L31.3856 197.88L31.4357 150.401L60.5946 152.23Z" fill="#102E35"/>
<path d="M31.2604 98.421C31.2604 98.421 15.4535 95.7573 15.4535 120.633C15.4535 145.508 19.2528 167.653 55.7432 145.466L52.971 141.233C52.971 141.233 33.3146 149.883 29.1311 142.285C24.9477 134.686 45.5476 102.596 31.2604 98.421Z" fill="#3D9426"/>
<path opacity="0.46" d="M31.2604 98.421C31.2604 98.421 15.4535 95.7573 15.4535 120.633C15.4535 145.508 19.2528 167.653 55.7432 145.466L52.971 141.233C52.971 141.233 33.3146 149.883 29.1311 142.285C24.9477 134.686 45.5476 102.596 31.2604 98.421Z" fill="white"/>
<path d="M55.1226 140.575L68.5084 143.942L73.5481 123.908L60.1623 120.541L55.1226 140.575Z" fill="#FCBD3F"/>
<path opacity="0.08" d="M195.567 105.594C195.567 105.594 189.463 110.437 193.171 120.975C196.878 131.513 193.363 149.366 182.75 151.295L197.054 150.401L204.302 126.453L195.567 105.594Z" fill="#2D3536"/>
<path d="M52.2111 86.9813C51.9677 87.061 51.7194 87.1252 51.4679 87.1733C51.1151 87.2534 50.7711 87.368 50.4408 87.5157L50.1736 87.6326C49.984 87.7157 49.8229 87.8525 49.7101 88.0261C49.5974 88.1997 49.5379 88.4026 49.539 88.6096C49.5797 89.0089 49.5365 89.4123 49.4122 89.794C49.2879 90.1757 49.0852 90.5272 48.8171 90.8259C48.549 91.1247 48.2215 91.3641 47.8554 91.5289C47.4894 91.6936 47.093 91.7801 46.6916 91.7826C46.6916 91.7826 44.1113 87.9332 46.1738 84.9772C46.7776 84.1593 47.5566 83.4866 48.4538 83.0084C49.3509 82.5302 50.3437 82.2585 51.3593 82.2133C51.9406 82.2063 52.5055 82.4058 52.9534 82.7763C53.4014 83.1468 53.7033 83.6642 53.8056 84.2364C53.9078 84.8086 53.8036 85.3986 53.5116 85.9012C53.2197 86.4039 52.7588 86.7866 52.2111 86.9813V86.9813Z" fill="#102E35"/>
<path d="M49.4889 90.4216C49.5807 90.3053 49.64 90.1667 49.6605 90.0199C49.681 89.8732 49.6622 89.7236 49.6058 89.5866C49.4221 89.1524 49.0631 88.5678 48.4618 88.6514C47.8606 88.7349 47.7354 89.7202 48.1612 90.3214C48.2392 90.4235 48.3396 90.5063 48.4547 90.5633C48.5699 90.6202 48.6966 90.6499 48.8251 90.6499C48.9535 90.6499 49.0803 90.6202 49.1954 90.5633C49.3105 90.5063 49.411 90.4235 49.4889 90.3214V90.4216Z" fill="#F4A28C"/>
<path d="M174.066 83.4825C174.498 84.1185 174.783 84.8431 174.901 85.6035C174.899 85.8363 174.953 86.0662 175.058 86.274C175.164 86.4817 175.317 86.6613 175.506 86.7977C175.694 86.9342 175.913 87.0235 176.143 87.0584C176.374 87.0932 176.609 87.0725 176.829 86.9979C179.334 86.5637 178.499 91.2816 181.781 90.7472C182.277 90.7296 182.755 90.5529 183.143 90.2431C183.531 89.9334 183.809 89.507 183.935 89.027C184.05 88.529 184.273 88.0625 184.589 87.6611C184.905 87.2597 185.307 86.9334 185.764 86.7057C186.457 86.3717 186.992 85.6953 186.666 84.3509C185.94 81.3114 183.585 85.0941 182.758 81.8459C181.931 78.5976 180.554 79.107 179.886 79.6915C179.218 80.276 178.533 81.1528 177.481 80.084C176.429 79.0151 172.596 81.1361 174.066 83.4825Z" fill="#102E35"/>
<path d="M179.042 90.4216C178.95 90.3053 178.891 90.1667 178.871 90.0199C178.85 89.8732 178.869 89.7236 178.925 89.5866C179.109 89.1524 179.468 88.5678 180.061 88.6514C180.654 88.7349 180.787 89.7202 180.37 90.3214C180.292 90.4235 180.192 90.5063 180.076 90.5633C179.961 90.6202 179.834 90.6499 179.706 90.6499C179.578 90.6499 179.451 90.6202 179.336 90.5633C179.221 90.5063 179.12 90.4235 179.042 90.3214V90.4216Z" fill="#F4A28C"/>
<path d="M110.186 113.126L112.357 113.777C112.954 113.949 113.493 114.28 113.917 114.735C114.34 115.189 114.633 115.75 114.762 116.357C114.996 117.493 115.013 118.737 114.119 119.113C112.366 119.839 109.543 116.123 109.543 116.123L110.186 113.126Z" fill="#F4A28C"/>
<path d="M119.606 113.126L117.568 113.735C116.906 113.93 116.311 114.307 115.854 114.824C115.396 115.341 115.093 115.977 114.98 116.658C114.804 117.702 114.863 118.77 115.673 119.113C117.426 119.839 120.249 116.123 120.249 116.123L119.606 113.126Z" fill="#F4A28C"/>
<path d="M114.228 104.639C127.321 104.639 137.935 94.0255 137.935 80.9329C137.935 67.8403 127.321 57.2267 114.228 57.2267C101.136 57.2267 90.5222 67.8403 90.5222 80.9329C90.5222 94.0255 101.136 104.639 114.228 104.639Z" fill="#102E35"/>
<path d="M115.108 66.5911C115.905 66.5911 116.152 66.87 116.152 67.6668V69.3721C119.339 69.8264 121.188 71.4201 122.527 74.2012C122.941 74.9981 122.766 75.4841 121.825 75.8985L120.128 76.6954C119.331 77.0779 118.949 76.9026 118.534 76.0738C118.179 75.2091 117.555 74.4817 116.754 73.9994C115.953 73.5172 115.018 73.3057 114.088 73.3963C111.139 73.3963 109.785 74.2649 109.785 76.2412C109.785 77.5321 110.964 78.329 112.175 78.568C113 78.7516 113.836 78.8794 114.678 78.9505C116.254 79.0296 117.81 79.3355 119.299 79.859C120.046 80.0952 120.741 80.4711 121.347 80.9666C121.963 81.6132 122.443 82.3763 122.759 83.2111C123.075 84.0459 123.221 84.9355 123.188 85.8275C123.188 89.6127 120.654 92.2025 116.176 92.848V94.6489C116.176 95.4458 115.929 95.7247 115.132 95.7247H113.219C112.422 95.7247 112.143 95.4458 112.143 94.6489V92.848C108.669 92.3937 106.342 90.6247 105.195 87.501C105.123 87.3456 105.087 87.1761 105.089 87.0049C105.092 86.8337 105.133 86.6653 105.209 86.5122C105.286 86.3591 105.396 86.2252 105.531 86.1204C105.667 86.0157 105.824 85.9428 105.992 85.9072L107.689 85.2857C108.558 84.9749 108.94 85.1821 109.323 86.0825C110.088 88.0269 111.649 88.9991 114.008 88.9991C117.196 88.9991 118.789 87.987 118.789 85.9391C118.817 85.4644 118.685 84.9941 118.413 84.6039C118.141 84.2137 117.746 83.9262 117.291 83.7875C116.185 83.3999 115.028 83.177 113.857 83.1261C112.248 83.019 110.667 82.6586 109.171 82.0583C108.432 81.8094 107.743 81.4287 107.139 80.9347C106.52 80.3176 106.034 79.5797 105.711 78.7667C105.389 77.9538 105.238 77.0833 105.266 76.2093C105.266 72.464 107.657 69.9618 112.072 69.3721V67.6668C112.072 66.87 112.351 66.5911 113.148 66.5911H115.108Z" fill="#F1F2ED"/>
<path d="M202.306 98.8136C207.675 99.2812 214.481 103.941 219.123 121.593L202.84 127.438L195.91 107.122C195.573 106.14 195.485 105.089 195.654 104.064C195.823 103.04 196.243 102.073 196.876 101.25C197.51 100.427 198.337 99.7736 199.285 99.3485C200.232 98.9234 201.27 98.7396 202.306 98.8136V98.8136Z" fill="#3D9426"/>
<path opacity="0.46" d="M202.306 98.8136C207.675 99.2812 214.481 103.941 219.123 121.593L202.84 127.438L195.91 107.122C195.573 106.14 195.485 105.089 195.654 104.064C195.823 103.04 196.243 102.073 196.876 101.25C197.51 100.427 198.337 99.7736 199.285 99.3485C200.232 98.9234 201.27 98.7396 202.306 98.8136V98.8136Z" fill="white"/>
<path d="M43.6688 98.8219C43.6688 98.8219 44.0362 94.6468 48.9378 96.1498C53.8394 97.6528 54.0899 99.6819 54.0899 99.6819L43.6688 98.8219Z" fill="#3D9426"/>
<path opacity="0.46" d="M43.6688 98.8219C43.6688 98.8219 44.0362 94.6468 48.9378 96.1498C53.8394 97.6528 54.0899 99.6819 54.0899 99.6819L43.6688 98.8219Z" fill="white"/>
<path d="M218.246 121.593L222.021 135.028C222.913 138.21 222.542 141.613 220.987 144.529C219.431 147.444 216.81 149.646 213.671 150.677L202.248 153.532C201.629 153.682 201.06 153.993 200.6 154.432C200.139 154.872 199.803 155.426 199.626 156.037C199.275 157.248 198.674 158.543 197.68 158.467C193.563 158.1 197.488 152.246 197.488 152.246L208.644 145.282C210.02 144.422 211.023 143.076 211.456 141.512C211.889 139.948 211.72 138.278 210.982 136.832L205.663 126.494L218.246 121.593Z" fill="#F4A28C"/>
<path d="M133.484 130.812H95.8492V148.147H133.484V130.812Z" fill="#FCBD3F"/>
<path opacity="0.34" d="M126.737 154.668H102.78V159.753H126.737V154.668Z" fill="#CBD5D6"/>
<path d="M53.4969 142.068C53.4969 142.068 56.1774 138.001 58.6991 140.055C61.2209 142.109 55.0584 144.447 55.0584 144.447L53.4969 142.068Z" fill="#F4A28C"/>
<path opacity="0.46" d="M129.726 133.709H109.66V138.018H129.726V133.709Z" fill="white"/>
<path opacity="0.58" d="M142.418 14.3345C142.418 14.3345 136.306 12.6645 134.978 6.978C134.978 6.978 144.447 5.06581 144.715 14.8355L142.418 14.3345Z" fill="#3D9426"/>
<path opacity="0.73" d="M143.17 13.725C143.17 13.725 138.903 6.97804 142.66 0.665283C142.66 0.665283 149.858 5.24119 146.66 13.7417L143.17 13.725Z" fill="#3D9426"/>
<path d="M144.272 13.7333C144.272 13.7333 146.527 6.60224 153.34 5.24951C153.34 5.24951 154.618 9.88387 148.931 13.75L144.272 13.7333Z" fill="#3D9426"/>
<path d="M139.838 13.5663L141.074 22.0417L148.873 22.0751L150.025 13.6164L139.838 13.5663Z" fill="#102E35"/>
</g>
<defs>
<clipPath id="clip0">
<rect width="228.907" height="220" fill="white"/>
</clipPath>
</defs>
</svg>
