<svg width="232" height="144" viewBox="0 0 232 144" fill="none" xmlns="http://www.w3.org/2000/svg">
<g clip-path="url(#clip0)">
<path opacity="0.45" d="M115.71 143.363C179.602 143.363 231.398 136.868 231.398 128.858C231.398 120.847 179.602 114.353 115.71 114.353C51.8176 114.353 0.022522 120.847 0.022522 128.858C0.022522 136.868 51.8176 143.363 115.71 143.363Z" fill="#E4EAEB"/>
<path d="M154.297 115.913L174.24 103.995C174.24 103.995 179.82 101.235 183.99 103.71C188.16 106.185 185.272 109.178 181.74 107.19C181.74 107.19 182.025 113.108 178.597 112.26C175.17 111.412 174.412 110.445 174.412 110.445L159.352 126.248L154.297 115.913Z" fill="#F4A28C"/>
<path opacity="0.08" d="M154.297 115.913L174.24 103.995C174.24 103.995 179.82 101.235 183.99 103.71C188.16 106.185 185.272 109.178 181.74 107.19C181.74 107.19 182.025 113.108 178.597 112.26C175.17 111.412 174.412 110.445 174.412 110.445L159.352 126.248L154.297 115.913Z" fill="#212829"/>
<path d="M162.113 75C162.113 75 168.435 91.38 158.325 92.505C148.215 93.63 150.473 74.925 156.075 71.43C161.678 67.935 162.113 75 162.113 75Z" fill="#102E35"/>
<path d="M55.905 105.465L63.93 76.965C67.155 75.1125 67.0425 73.215 63.18 71.3175C59.3175 69.42 60.93 66.39 55.5975 65.595C50.265 64.8 58.245 74.415 58.245 74.415L41.9025 105.465L45.405 115.5L77.9175 122.505L79.4925 100.755L55.905 105.465Z" fill="#F4A28C"/>
<path opacity="0.08" d="M55.905 105.465L63.93 76.965C67.155 75.1125 67.0425 73.215 63.18 71.3175C59.3175 69.42 60.93 66.39 55.5975 65.595C50.265 64.8 58.245 74.415 58.245 74.415L41.9025 105.465L45.405 115.5L77.9175 122.505L79.4925 100.755L55.905 105.465Z" fill="#212829"/>
<path d="M166.972 67.095C166.972 67.095 165.322 71.64 163.222 74.1975C162.812 74.6963 162.221 75.0119 161.579 75.0752C160.936 75.1385 160.294 74.9442 159.795 74.535C158.52 73.4625 157.11 71.6475 157.695 69.105L158.167 64.6725C158.357 63.7946 158.813 62.9967 159.473 62.3884C160.134 61.7801 160.967 61.3911 161.857 61.275C165.172 60.6525 168.12 64.38 166.972 67.095Z" fill="#F4A28C"/>
<path d="M158.235 65.4075L145.935 75.375L151.913 81.765L158.295 72.195L158.235 65.4075Z" fill="#F4A28C"/>
<path d="M165.787 69.9L166.222 72.15C166.255 72.2795 166.253 72.4154 166.216 72.5438C166.179 72.6721 166.108 72.7881 166.011 72.8799C165.914 72.9717 165.794 73.0358 165.663 73.0657C165.533 73.0956 165.397 73.0902 165.27 73.05L163.447 72.585L165.787 69.9Z" fill="#F4A28C"/>
<path opacity="0.31" d="M158.1 72.48C158.1 72.48 157.492 71.4075 157.627 68.88C157.627 68.88 155.205 71.07 156.45 74.9625L158.1 72.48Z" fill="#CE8172"/>
<path d="M160.5 67.875C160.5 67.875 161.25 66.1725 159.922 65.715C158.595 65.2575 157.5 67.7025 159.112 68.715L160.5 67.875Z" fill="#F4A28C"/>
<path d="M160.898 67.5C160.898 67.5 161.453 65.4225 159.728 65.13C158.003 64.8375 157.148 67.2 158.813 68.88L160.898 67.5Z" fill="#F4A28C"/>
<path d="M155.325 85.5C157.853 88.7914 159.78 92.5034 161.018 96.465C163.83 105.465 167.52 121.417 161.018 127.875C154.005 134.835 77.535 127.875 77.535 127.875L79.785 96.75C79.785 96.75 102.54 87.2625 116.723 77.835C133.29 66.825 145.223 71.04 152.543 81.6675C153.428 82.995 154.365 84.2775 155.325 85.5Z" fill="#3D9426"/>
<path opacity="0.08" d="M148.583 101.197C148.583 101.197 155.753 95.055 162 99.84C162 99.84 159.368 90.84 156.495 87.1575C153.623 83.475 144.045 86.3925 148.583 101.197Z" fill="#212829"/>
<path opacity="0.08" d="M115.102 78.915L106.537 83.94C106.537 83.94 107.287 84.615 108.45 85.8375C110.188 87.6195 111.26 89.9459 111.484 92.4252C111.708 94.9045 111.071 97.3853 109.68 99.45C104.287 107.377 97.3125 120.78 103.95 129.855C103.95 129.855 139.14 131.985 152.4 130.32L134.542 110.25L141.937 92.4825L132.277 78.45L115.102 78.915Z" fill="#212829"/>
<path d="M77.5275 127.905H48C44.5678 127.906 41.2381 126.736 38.5611 124.588C35.8842 122.44 34.0202 119.443 33.2775 116.092L23.1525 70.545L30.6525 69.2175L42.0975 100.455C43.0375 103.015 44.8171 105.182 47.1461 106.601C49.4751 108.02 52.2162 108.608 54.9225 108.27L79.17 105.217L77.5275 127.905Z" fill="#F4A28C"/>
<path d="M167.25 65.655C167.25 65.655 165.697 66.8925 162.42 66.405C159.78 66.0375 161.122 68.655 159.217 70.545C158.392 71.355 158.587 74.0925 158.347 75.045C157.597 78.12 159.675 87.5325 154.425 88.11C149.175 88.6875 137.25 76.5 131.078 82.5525C124.905 88.605 109.778 83.82 117.03 73.08C124.283 62.34 145.823 71.5125 152.115 59.9625C158.31 48.5925 173.67 59.34 167.25 65.655Z" fill="#102E35"/>
<path d="M79.7775 96.78L55.8975 105.465L56.9025 127.905H77.5275L79.7775 96.78Z" fill="#102E35"/>
<path d="M23.1525 70.545C23.1525 70.545 10.905 67.725 15.6525 65.1C20.4 62.475 22.4025 65.9775 26.655 65.1C30.9075 64.2225 32.1525 65.715 30.6525 69.2175L23.1525 70.545Z" fill="#F4A28C"/>
<path d="M196.982 106.248L191.273 103.262L183.216 118.667L188.925 121.653L196.982 106.248Z" fill="#FCBD3F"/>
<path d="M144.053 79.4175C140.989 78.6574 137.762 78.8974 134.845 80.1024C131.927 81.3075 129.472 83.4144 127.838 86.115C121.088 97.035 109.793 118.117 117.623 125.962C127.08 135.427 177.548 128.842 189.78 127.087C192.052 126.784 194.125 125.628 195.578 123.855C197.258 121.777 198.383 118.837 195.173 115.987C189.323 110.782 185.835 120.18 185.835 120.18L142.815 117.525C142.265 117.493 141.733 117.316 141.273 117.013C140.813 116.709 140.442 116.29 140.195 115.797C139.949 115.305 139.837 114.756 139.87 114.206C139.903 113.656 140.081 113.124 140.385 112.665C146.43 103.455 157.943 83.07 144.053 79.4175Z" fill="#F4A28C"/>
<path d="M117.45 102.9L143.625 109.193C143.625 109.193 160.95 87.1575 145.387 78.915C129.825 70.6725 117.45 102.9 117.45 102.9Z" fill="#3D9426"/>
<path opacity="0.46" d="M117.45 102.9L143.625 109.193C143.625 109.193 160.95 87.1575 145.387 78.915C129.825 70.6725 117.45 102.9 117.45 102.9Z" fill="white"/>
<path opacity="0.45" d="M197.25 97.3575C197.25 97.3575 252.172 47.34 213.922 20.715C175.672 -5.91001 155.55 46.035 176.925 50.91C198.3 55.785 207.3 -0.0300072 147.675 1.84499C88.0499 3.71999 121.935 52.89 55.9349 26.64" stroke="#CBD5D6" stroke-width="3" stroke-linecap="round" stroke-linejoin="round" stroke-dasharray="2 12"/>
<path d="M49.7325 17.76L59.835 11.865L19.035 7.32001L37.695 34.92L44.34 20.715L49.7325 17.76Z" fill="#FCBD3F"/>
<path d="M49.7325 17.76L46.905 28.065L44.34 20.715L19.035 7.32001L49.7325 17.76Z" fill="#FCBD3F"/>
<path opacity="0.46" d="M49.7325 17.76L46.905 28.065L44.34 20.715L19.035 7.32001L49.7325 17.76Z" fill="white"/>
<path d="M46.905 28.065L42.3975 24.8625L44.34 20.715L46.905 28.065Z" fill="#102E35"/>
</g>
<defs>
<clipPath id="clip0">
<rect width="231.75" height="144" fill="white"/>
</clipPath>
</defs>
</svg>
